<svg width="49" height="48" viewBox="0 0 49 48" fill="none" xmlns="http://www.w3.org/2000/svg">
<path d="M49 24C49 37.2548 38.031 48 24.5 48C10.969 48 0 37.2548 0 24C0 10.7452 10.969 0 24.5 0C38.031 0 49 10.7452 49 24Z" fill="#717171"/>
<path d="M17.7358 37.8992L15.1749 37.0456H13.8944H13.0408C13.0408 37.0456 11.9707 37.2416 11.3335 37.0456C10.9772 36.9359 10.7434 36.8823 10.4798 36.6187C10.2163 36.3552 10.1339 36.1289 10.053 35.7651C9.98069 35.4397 10.053 34.9114 10.053 34.9114C10.053 34.9114 9.93374 33.8601 10.053 33.2041C10.1473 32.6855 10.4798 31.9237 10.4798 31.9237L10.9067 31.07V28.5091C10.9067 28.5091 10.863 27.4671 10.9067 26.8018C10.973 25.7901 11.3335 24.2408 11.3335 24.2408C11.3335 24.2408 11.8108 22.4067 12.1871 21.2531C12.6288 19.8991 12.8593 19.1262 13.4676 17.8385C14.0416 16.6234 14.4206 15.9629 15.1749 14.8507C15.6427 14.1609 15.9706 13.8214 16.4554 13.1434C17.1545 12.1657 17.3896 11.5028 18.1627 10.5825C18.7691 9.86048 19.1278 9.45685 19.87 8.87518C20.343 8.50444 20.5616 8.1416 21.1504 8.02153C21.8238 7.88424 22.8577 8.44836 22.8577 8.44836C22.8577 8.44836 24.4774 9.40816 25.4187 10.1557C26.7109 11.1818 28.4064 13.1434 28.4064 13.1434C28.4064 13.1434 28.5119 13.6808 28.4064 13.9971C28.2573 14.4443 27.5528 14.8507 27.5528 14.8507L26.6991 15.7044L24.1382 14.4239H24.565V13.9971V13.1434H24.1382L23.7114 13.9971V14.8507L24.565 15.2775L25.8455 15.7044L26.6991 16.1312C26.6991 16.1312 27.2892 16.2945 27.5528 16.558C27.8163 16.8216 27.9796 17.4117 27.9796 17.4117C27.9796 17.4117 28.2642 18.281 27.9796 18.6921C27.6796 19.1255 26.6991 19.119 26.6991 19.119C26.6991 19.119 26.1709 19.1913 25.8455 19.119C25.4816 19.0381 24.9918 18.6921 24.9918 18.6921L23.7114 18.2653H22.8577C22.8577 18.2653 22.0597 18.1337 21.5773 18.2653C21.2177 18.3634 20.9872 18.4286 20.7236 18.6921C20.4601 18.9557 20.2968 19.5458 20.2968 19.5458C20.2968 19.5458 19.9642 20.3076 19.87 20.8262C19.7507 21.4822 19.87 21.8668 19.87 22.5335C19.87 23.2003 19.7507 23.5849 19.87 24.2408C19.9642 24.7594 20.2968 25.5213 20.2968 25.5213L20.7236 26.8018C20.7236 26.8018 21.1765 25.9692 21.5773 25.5213C22.133 24.9002 22.56 24.6527 23.2845 24.2408C24.0649 23.7972 25.4187 23.3872 25.4187 23.3872L27.126 22.9604C27.126 22.9604 28.4133 22.6072 29.2601 22.5335C29.9243 22.4758 30.3031 22.4758 30.9674 22.5335C31.8141 22.6072 33.1015 22.9604 33.1015 22.9604C33.1015 22.9604 34.1673 23.1405 34.8088 23.3872C35.7159 23.7361 36.1245 24.1433 36.9429 24.6677C37.4489 24.9919 37.7755 25.1206 38.2234 25.5213C38.8445 26.077 39.162 26.4685 39.5038 27.2286C39.8525 28.0037 39.9307 29.3627 39.9307 29.3627C39.9307 29.3627 40.0867 30.9358 39.9307 31.9237C39.7663 32.965 39.5839 33.5603 39.077 34.4846C38.6763 35.2154 38.3859 35.6026 37.7966 36.1919C36.4788 37.5097 33.5283 38.326 33.5283 38.326C33.5283 38.326 31.4738 38.9806 30.1137 39.1797C28.1346 39.4693 24.9918 39.1797 24.9918 39.1797L20.7236 38.7528L17.7358 37.8992Z" stroke="white"/>
<path d="M33.5283 31.9236C34.2156 31.2363 33.8659 30.0252 34.8088 29.7895C35.1322 29.7086 35.3643 29.6404 35.6625 29.7895C35.8733 29.8949 35.9723 30.0116 36.0893 30.2163C36.4591 30.8635 35.2356 31.9236 35.2356 31.9236C35.2356 31.9236 34.4867 32.7376 33.9552 33.2041C33.3287 33.7538 32.959 34.0499 32.2479 34.4845C31.6118 34.8732 31.2327 35.0613 30.5406 35.3382C30.0512 35.5339 29.7787 35.6707 29.2601 35.765C28.6041 35.8843 28.2147 35.8452 27.5528 35.765C26.8705 35.6823 26.5069 35.525 25.8455 35.3382C24.831 35.0516 24.214 34.9821 23.2846 34.4845C22.7547 34.2009 22.2041 34.1976 22.0041 33.6309C21.8931 33.3165 21.7684 33.013 22.0041 32.7772C22.2398 32.5415 22.8577 32.7772 22.8577 32.7772L24.565 33.6309C24.565 33.6309 25.8541 33.9672 26.6992 34.0577C27.6936 34.1642 28.2801 34.257 29.2601 34.0577C30.1397 33.8788 31.3942 33.2041 31.3942 33.2041C31.3942 33.2041 32.8411 32.6108 33.5283 31.9236Z" fill="white" stroke="white"/>
</svg>
