<svg width="43" height="41" viewBox="0 0 43 41" fill="none" xmlns="http://www.w3.org/2000/svg">
<path d="M29.6424 37.7313V40.2313H13.6424V37.7313M29.6424 37.7313H13.6424M29.6424 37.7313C29.6424 37.7313 30.3523 37.5576 30.6424 37.2313C31.1613 36.6475 30.4127 35.9778 30.6424 35.2313C30.7708 34.814 31.1424 34.2313 31.1424 34.2313C31.1424 34.2313 31.5043 33.6455 31.6424 33.2313C31.9511 32.3051 31.6424 30.7313 31.6424 30.7313M13.6424 37.7313C13.6424 37.7313 12.9324 37.5576 12.6424 37.2313C12.1235 36.6475 12.8721 35.9778 12.6424 35.2313C12.514 34.814 12.1424 34.2313 12.1424 34.2313C12.1424 34.2313 11.7804 33.6455 11.6424 33.2313C11.3336 32.3051 11.6424 30.7313 11.6424 30.7313M11.6424 30.7313L12.6424 29.7313L13.6424 28.7313L15.1424 27.7313L16.6424 26.7313L18.1424 25.7313C18.1424 25.7313 18.7834 25.4798 19.1424 25.2313C19.5965 24.9169 20.1424 24.2313 20.1424 24.2313M11.6424 30.7313C11.6424 30.7313 10.9511 30.54 10.6424 30.2313C10.2057 29.7947 10.2387 29.3412 10.1424 28.7313C10.051 28.1527 10.1424 27.2313 10.1424 27.2313M20.1424 24.2313H23.1424M20.1424 24.2313C20.1424 24.2313 19.6118 23.256 19.1424 22.7313C18.9582 22.5255 18.8482 22.4154 18.6424 22.2313M23.1424 24.2313L24.1424 25.2313C24.1424 25.2313 24.7834 25.4828 25.1424 25.7313C25.5965 26.0457 26.1424 26.7313 26.1424 26.7313C26.1424 26.7313 26.7195 27.3761 27.1424 27.7313C27.6814 28.1841 28.6424 28.7313 28.6424 28.7313C28.6424 28.7313 29.2064 29.3922 29.6424 29.7313C30.3317 30.2674 31.6424 30.7313 31.6424 30.7313M23.1424 24.2313C23.1424 24.2313 23.2719 23.2253 23.6424 22.7313C23.8081 22.5104 24.0003 22.4681 24.1424 22.2313C24.4438 21.729 24.1424 20.7313 24.1424 20.7313M31.6424 30.7313C31.6424 30.7313 32.4973 29.9202 32.6424 29.2313C32.7228 28.8492 32.6424 28.2313 32.6424 28.2313L32.3924 27.4813M10.1424 27.2313C10.1424 27.2313 10.3336 26.54 10.6424 26.2313C11.079 25.7947 11.5853 25.9977 12.1424 25.7313C12.7775 25.4275 13.6424 24.7313 13.6424 24.7313L15.1424 23.7313L16.6424 22.7313L17.5047 22.3001M10.1424 27.2313C10.1424 27.2313 9.78044 26.6455 9.64237 26.2313C9.33363 25.3051 10.3327 24.4217 9.64237 23.7313C9.33363 23.4226 9.43241 23.0578 9.14233 22.7314C8.85226 22.4051 9.14233 21.2314 9.14233 21.2314L9.64233 20.2314C10.1165 19.378 9.64237 17.7313 9.64237 17.7313V16.2313M18.6424 22.2313C18.2518 22.2313 17.6424 22.2313 17.6424 22.2313L17.5047 22.3001M18.6424 22.2313C18.6424 21.6455 18.6424 21.3171 18.6424 20.7313M18.6424 20.7313C19.2282 20.1455 19.5566 19.8171 20.1424 19.2313M18.6424 20.7313C18.0566 20.536 17.1424 20.2313 17.1424 20.2313M20.1424 19.2313C21.1187 19.2313 22.6424 19.2313 22.6424 19.2313M20.1424 19.2313C19.7518 18.4502 19.1424 17.2313 19.1424 17.2313M22.6424 19.2313L24.1424 20.7313M22.6424 19.2313L23.6424 17.2313M24.1424 20.7313L25.6424 19.7313L27.1424 18.2313L29.1424 16.2313L31.1424 14.7313M24.1424 20.7313L25.6424 22.2313L27.1424 23.2313L29.1424 24.7313C29.1424 24.7313 30.0566 25.3408 30.6424 25.7313C31.2282 26.1218 31.7931 26.12 32.1424 26.7313C32.2955 26.9994 32.3924 27.4813 32.3924 27.4813M9.64237 16.2313C9.64237 16.2313 10.238 15.896 10.6424 15.7313C11.388 15.4275 12.6424 15.2313 12.6424 15.2313M9.64237 16.2313L7.14237 14.2313C7.14237 14.2313 6.28287 13.5236 5.64237 13.2313C4.90993 12.8971 4.44161 12.8282 3.64237 12.7313C2.867 12.6373 1.64237 12.7313 1.64237 12.7313C1.64237 12.7313 1.2398 12.1569 1.14237 11.7313C0.90773 10.7063 1.47138 10.0409 2.14237 9.2313C2.86891 8.35468 4.64237 7.7313 4.64237 7.7313L6.14237 6.2313M9.64237 16.2313H9.14237C9.14237 16.2313 7.47631 16.9561 6.64237 17.7313C5.92727 18.396 5.9001 19.1156 5.14237 19.7313C4.46464 20.282 3.84859 20.2177 3.14237 20.7313C2.47239 21.2186 1.64237 22.2313 1.64237 22.2313C1.64237 22.2313 1.27175 21.3351 1.14237 20.7313C0.896891 19.5857 1.01756 18.8962 1.14237 17.7313C1.24844 16.7413 1.311 16.1702 1.64237 15.2313C1.933 14.4078 3.14233 12.7314 3.14233 12.7314M12.6424 15.2313L13.6424 16.2313L15.1424 17.2313L16.1424 18.7313L17.1424 20.2313M12.6424 15.2313C12.6424 15.2313 12.9605 13.7768 13.6424 13.2313C13.9833 12.9585 14.6424 12.7313 14.6424 12.7313M17.1424 20.2313L17.5047 22.3001M19.1424 17.2313C19.1424 17.2313 18.3327 15.9217 17.6424 15.2313C16.952 14.5409 15.6424 13.7313 15.6424 13.7313L14.6424 12.7313M19.1424 17.2313L20.1424 17.7313H22.6424L23.6424 17.2313M14.6424 12.7313V10.7313L14.1424 8.2313M23.6424 17.2313L25.6424 15.2313C25.6424 15.2313 26.1895 14.2704 26.6424 13.7313C26.9976 13.3084 27.6424 12.7313 27.6424 12.7313M21.6424 12.2313C21.6424 10.6692 21.6424 8.2313 21.6424 8.2313M21.6424 8.2313H20.1424L18.1424 7.7313L17.6424 7.2313M21.6424 8.2313H23.1424L24.6424 7.7313L25.1424 7.2313M17.6424 7.2313V1.2313H16.1424C16.1424 1.2313 14.841 0.882003 14.1424 1.2313C13.6484 1.47829 13.1363 1.48446 12.6423 1.73145C11.9437 2.08074 11.841 1.882 11.1424 2.2313C10.6484 2.47829 10.1424 3.2313 10.1424 3.2313L8.14237 3.7313C8.14237 3.7313 7.09353 3.80972 6.64237 4.2313C6.05413 4.78097 6.14237 6.2313 6.14237 6.2313M17.6424 7.2313L14.1424 8.2313M6.14237 6.2313H9.14237M9.14237 6.2313V3.7313M9.14237 6.2313L10.6424 7.2313C10.6424 7.2313 11.4718 8.01673 12.1424 8.2313C12.8863 8.46934 14.1424 8.2313 14.1424 8.2313M25.1424 7.2313V1.2313C25.1424 1.2313 27.3785 0.710877 28.6424 1.2313C29.2934 1.49936 29.4631 1.5462 30.1423 1.73145C30.7075 1.88558 31.0772 2.07717 31.6424 2.2313C32.3216 2.41654 33.1424 3.2313 33.1424 3.2313L34.1424 3.7313M25.1424 7.2313L27.1424 7.7313L28.6424 8.2313M36.6424 6.2313L36.1424 5.2313C36.1424 5.2313 35.5965 4.54566 35.1424 4.2313C34.7834 3.98277 34.1424 3.7313 34.1424 3.7313M36.6424 6.2313H33.6424M36.6424 6.2313L38.1424 7.7313C38.1424 7.7313 39.8765 9.08248 40.6424 10.2313C41.1268 10.9579 41.6424 12.2313 41.6424 12.2313L40.6424 12.7313M33.6424 6.2313L34.1424 5.2313V3.7313M33.6424 6.2313C33.6424 6.2313 33.1083 6.93479 32.6424 7.2313C32.1214 7.5628 31.1424 7.7313 31.1424 7.7313C31.1424 7.7313 30.2551 8.15471 29.6424 8.2313C29.2549 8.27974 28.6424 8.2313 28.6424 8.2313M28.6424 8.2313L28.1424 10.7313L27.6424 12.7313M27.6424 12.7313C27.6424 12.7313 28.5853 12.9649 29.1424 13.2313C30.0231 13.6525 31.1424 14.7313 31.1424 14.7313M34.1424 15.2313C35.3139 14.8408 37.1424 14.2313 37.1424 14.2313L39.6424 13.2313L40.6424 12.7313M34.1424 15.2313C32.9708 15.036 31.1424 14.7313 31.1424 14.7313M34.1424 15.2313C34.1424 15.8171 34.1424 16.7313 34.1424 16.7313M40.6424 12.7313L41.1424 17.2313C41.1424 17.2313 41.5717 19.3524 41.6424 20.7313C41.6824 21.5113 41.6424 22.7313 41.6424 22.7313C41.6424 22.7313 40.0763 21.5626 39.1424 20.7313C38.111 19.8133 37.7406 19.0681 36.6424 18.2313C35.7367 17.5413 34.1424 16.7313 34.1424 16.7313M34.1424 16.7313C34.1424 16.7313 33.6424 17.6138 33.6424 18.2313C33.6424 19.1045 34.4529 19.3789 34.6424 20.2313C34.8118 20.9937 34.6424 22.2313 34.6424 22.2313L34.1424 24.2313C34.1424 24.2313 34.0538 25.5393 33.6424 26.2313C33.2895 26.8247 32.3924 27.4813 32.3924 27.4813" stroke="black" stroke-width="1.5"/>
<path d="M25.1426 22.2314L23.1426 24.2314" stroke="black"/>
<path d="M18.1426 22.2314L20.1426 25.2314" stroke="black"/>
</svg>
