<svg width="49" height="48" viewBox="0 0 49 48" fill="none" xmlns="http://www.w3.org/2000/svg">
<path d="M49 24C49 37.2548 38.031 48 24.5 48C10.969 48 0 37.2548 0 24C0 10.7452 10.969 0 24.5 0C38.031 0 49 10.7452 49 24Z" fill="#496AD0"/>
<path d="M15.1706 27.9876C15.8469 28.1645 16.7718 28.7871 16.7718 28.7871L17.1721 29.1868V13.1978C17.1721 13.1978 17.5723 11.9992 18.373 11.9986C19.1737 11.998 36.3868 9.99961 37.1873 10C37.9878 10.0004 37.9879 11.1992 37.9879 11.1992V29.5865C37.9879 29.5865 38.1086 31.8697 37.5876 33.184C37.1727 34.2307 36.8907 34.9103 35.9864 35.5824C34.9522 36.3509 34.0709 36.3069 32.7839 36.3818C31.5257 36.455 30.7353 36.4886 29.5815 35.9821C28.4638 35.4914 27.8375 35.0106 27.1797 33.9835C26.647 33.1518 26.3728 32.5724 26.3791 31.5851C26.3867 30.3963 26.8848 29.7522 27.58 28.7871C28.0964 28.0702 28.4351 27.6622 29.1812 27.1882C30.2688 26.4971 31.0983 26.29 32.3836 26.3887C33.3694 26.4644 34.7855 27.1882 34.7855 27.1882V16.7953L20.3745 18.3942C20.3745 18.3942 20.6935 32.8667 20.3745 33.9835C20.0555 35.1003 19.4406 35.965 18.373 36.7816C17.3126 37.5926 16.5032 37.891 15.1706 37.9807C13.5422 38.0903 12.4891 37.7379 11.1675 36.7816C10.1789 36.0661 9.51759 35.5508 9.16601 34.3832C8.80309 33.178 9.07975 32.3464 9.56632 31.1854C10.1227 29.8578 10.6814 29.0358 11.9681 28.3873C13.0933 27.8203 13.9513 27.6687 15.1706 27.9876Z" fill="white" stroke="white" stroke-linecap="round"/>
</svg>
