<svg width="39" height="49" viewBox="0 0 39 49" fill="none" xmlns="http://www.w3.org/2000/svg">
<path fill-rule="evenodd" clip-rule="evenodd" d="M10.6552 25.0171L12.6552 23.5171H14.6552H17.6552C17.6552 23.5171 18.476 22.7023 19.1552 22.5171C19.7204 22.363 20.6552 22.5171 20.6552 22.5171V23.5171V26.5171H25.1552C25.1552 26.5171 26.1088 25.6398 26.6552 25.0171L26.6868 24.9811L26.6869 24.9811C27.3115 24.2694 27.6788 23.8508 28.1552 23.0171C28.3719 22.638 28.6552 22.0171 28.6552 22.0171V16.5171L27.6552 17.5171C27.518 17.6543 27.406 17.7747 27.3 17.8886C27.1044 18.0988 26.9295 18.2867 26.6552 18.5171C26.4929 18.6535 26.3477 18.8301 26.2074 19.0008C25.8818 19.3969 25.5824 19.7612 25.1552 19.5171C24.7762 19.3005 24.6552 18.5171 24.6552 18.5171L25.6552 17.0171C25.6552 17.0171 26.0268 16.4344 26.1552 16.0171C26.3849 15.2706 26.3933 14.761 26.1552 14.0171C25.9407 13.3466 25.1552 12.5171 25.1552 12.5171L24.6552 14.0171C24.6552 14.0171 24.1749 15.603 23.6552 16.5171C23.1728 17.3658 22.8456 17.8267 22.1552 18.5171C21.4649 19.2074 20.1552 20.0171 20.1552 20.0171L18.6552 21.0171C18.6552 21.0171 15.955 21.8836 14.6552 21.0171C14.1957 20.7107 13.6552 20.0171 13.6552 20.0171L12.1552 18.5171C12.1552 18.5171 12.758 20.5125 12.1552 21.5171C11.8995 21.9433 11.6473 22.1376 11.2816 22.4194C11.241 22.4507 11.1989 22.4831 11.1552 22.5171C10.8106 22.7851 10.4829 22.9011 10.1552 23.0171C9.82757 23.1331 9.49989 23.249 9.15524 23.5171C8.7193 23.8562 8.15524 24.5171 8.15524 24.5171C8.15524 24.5171 7.19266 24.7502 6.65524 24.5171C6.5818 24.4852 6.47189 24.4254 6.47189 24.4254C6.47189 24.4254 6.22749 23.5762 6.15524 23.0171C6.13991 22.8985 6.12389 22.7868 6.10858 22.68C6.02387 22.0896 5.96072 21.6493 6.15524 21.0171C6.25246 20.7011 6.36663 20.5087 6.50906 20.2686C6.55475 20.1915 6.60336 20.1096 6.65524 20.0171C6.99969 19.4031 7.20242 19.0562 7.65524 18.5171C7.71951 18.4406 7.77801 18.3687 7.83348 18.3006C8.08458 17.9921 8.2736 17.76 8.65524 17.5171C9.17618 17.1856 10.1552 17.0171 10.1552 17.0171H11.1552L10.6552 16.5171C10.6552 16.5171 9.96961 15.9712 9.65524 15.5171C9.60045 15.4379 9.54551 15.3663 9.49315 15.298C9.30805 15.0567 9.15524 14.8574 9.15524 14.5171C9.15524 14.0805 9.65524 13.5171 9.65524 13.5171L10.1552 12.5171L11.1552 13.0171C11.1552 13.0171 11.6313 13.8424 12.1552 14.0171C12.3955 14.0972 12.5805 14.0734 12.7874 14.0468C12.8995 14.0323 13.018 14.0171 13.1552 14.0171C13.4297 14.0171 13.678 14.0706 13.9128 14.1212C14.3462 14.2146 14.7337 14.2981 15.1552 14.0171C15.385 13.8639 15.6552 13.5171 15.6552 13.5171L16.6552 12.5171V11.5171V10.5171L16.1552 10.0171C16.1552 10.0171 15.6792 10.8424 15.1552 11.0171C14.915 11.0972 14.73 11.0734 14.5231 11.0468C14.411 11.0323 14.2925 11.0171 14.1552 11.0171H12.6552C12.6552 11.0171 12.2426 10.7791 12.1552 10.5171C12.0172 10.1029 12.6552 9.51709 12.6552 9.51709L13.6552 9.01709L14.6552 8.51709V6.51709L13.1552 6.01709L12.1552 6.51709C12.1552 6.51709 11.4696 7.06301 11.1552 7.51709C11.0263 7.70328 10.9605 7.86672 10.8938 8.03207C10.8319 8.18553 10.7694 8.34064 10.6552 8.51709C10.4388 8.85161 10.1773 9.0442 9.91912 9.23438C9.64047 9.43963 9.36561 9.64208 9.15524 10.0171C8.9583 10.3682 8.93177 10.6926 8.90524 11.0171C8.87872 11.3416 8.85219 11.666 8.65524 12.0171C8.24993 12.7396 7.15524 13.5171 7.15524 13.5171L5.15524 15.0171C5.15524 15.0171 3.78397 16.1089 3.15524 17.0171C2.88072 17.4136 2.73963 17.7527 2.59364 18.1036C2.47529 18.3881 2.35372 18.6803 2.15524 19.0171C1.79781 19.6236 1.15524 20.5171 1.15524 20.5171C1.15524 20.5171 0.402232 21.0231 0.155242 21.5171C-0.194053 22.2157 0.155242 23.5171 0.155242 23.5171C0.155242 23.5171 0.218623 24.5805 0.655242 25.0171C1.09186 25.4537 2.15524 25.5171 2.15524 25.5171L2.65524 26.0171C2.65524 26.0171 3.42584 27.1243 4.15524 27.5171C5.3587 28.1651 7.65524 27.5171 7.65524 27.5171L9.15524 26.5171L10.6552 25.0171ZM3.5572 22.0269C3.28648 22.081 3.1109 22.3444 3.16505 22.6151C3.21919 22.8859 3.48255 23.0614 3.75328 23.0073C4.02401 22.9531 4.19958 22.6898 4.14544 22.4191C4.09129 22.1483 3.82793 21.9727 3.5572 22.0269Z" fill="black"/>
<path d="M2.65537 41.5171C2.80153 40.7254 2.91177 40.2844 3.15537 39.5171C3.47826 38.7057 3.70002 38.2622 4.15537 37.5171C4.66447 36.684 5.6554 35.5171 5.6554 35.5171L7.65537 36.5171C7.65537 36.5171 7.06805 37.4058 7.15537 38.0171C7.21712 38.4493 7.65537 39.0171 7.65537 39.0171H32.6554C32.6554 39.0171 33.2427 38.1284 33.1554 37.5171C33.0936 37.0849 32.6554 36.5171 32.6554 36.5171L35.1554 35.5171L36.1554 37.0171L37.6554 39.0171L33.6554 41.5171H7.65537L7.15537 41.0171C6.68943 41.3136 6.45188 41.5511 6.15537 42.0171C5.72314 42.6963 5.36029 43.268 5.65537 44.0171C5.8578 44.5309 6.65537 45.0171 6.65537 45.0171H33.1554C33.1554 45.0171 33.9084 44.5111 34.1554 44.0171C34.5047 43.3185 34.1554 42.0171 34.1554 42.0171L37.1554 39.5171L37.4171 41.5171V47.5171H2.65537C2.65537 47.5171 2.22998 43.8213 2.65537 41.5171Z" fill="#121212"/>
<path d="M3.15537 39.5171C2.91177 40.2844 2.80153 40.7254 2.65537 41.5171C2.22998 43.8213 2.65537 47.5171 2.65537 47.5171H37.4171V41.5171L37.1554 39.5171L34.1554 42.0171C34.1554 42.0171 34.5047 43.3185 34.1554 44.0171C33.9084 44.5111 33.1554 45.0171 33.1554 45.0171H6.65537C6.65537 45.0171 5.8578 44.5309 5.65537 44.0171C5.36029 43.268 5.72314 42.6963 6.15537 42.0171C6.45188 41.5511 6.68943 41.3136 7.15537 41.0171M3.15537 39.5171C4.71747 40.1029 5.59327 40.4313 7.15537 41.0171M3.15537 39.5171C3.47826 38.7057 3.70002 38.2622 4.15537 37.5171C4.66447 36.684 5.6554 35.5171 5.6554 35.5171L7.65537 36.5171C7.65537 36.5171 7.06805 37.4058 7.15537 38.0171C7.21712 38.4493 7.65537 39.0171 7.65537 39.0171H32.6554C32.6554 39.0171 33.2427 38.1284 33.1554 37.5171C33.0936 37.0849 32.6554 36.5171 32.6554 36.5171L35.1554 35.5171L36.1554 37.0171L37.6554 39.0171L33.6554 41.5171H7.65537C7.65537 41.5171 7.35063 41.2124 7.15537 41.0171" stroke="black"/>
<path d="M17.1553 28.017C18.0594 26.5101 17.1553 23.517 17.1553 23.517H15.1553C15.1553 23.517 15.8398 25.5662 15.1553 26.517C14.7439 27.0884 14.2033 27.0751 13.6553 27.517C13.0104 28.0371 12.1553 29.017 12.1553 29.017C12.1553 29.017 11.3001 29.997 10.6553 30.517C10.1072 30.959 9.7033 31.0751 9.15527 31.517C8.51042 32.0371 7.65527 33.017 7.65527 33.017L6.15527 35.017L8.15527 36.517H32.1553C32.1553 36.517 35.4857 36.4944 35.6553 35.017C35.6775 34.823 35.6553 34.517 35.6553 34.517C35.6553 34.517 35.7493 33.2924 35.6553 32.517C35.5584 31.7178 35.1553 30.517 35.1553 30.517L36.1553 29.517C36.1553 29.517 35.3728 29.0246 35.1553 28.517C34.9245 27.9786 35.1553 27.017 35.1553 27.017L36.1553 26.017C36.1553 26.017 35.8248 25.735 35.6553 25.517C35.3872 25.1724 35.2702 24.9383 35.1553 24.517C35.0011 23.9519 35.0011 23.5822 35.1553 23.017C35.2702 22.5958 35.3872 22.3617 35.6553 22.017C35.8248 21.799 36.1553 21.517 36.1553 21.517L35.6553 20.517C35.6553 20.517 35.3062 19.9267 35.1553 19.517C34.6828 18.2345 35.1553 16.017 35.1553 16.017C35.1553 16.017 34.1168 15.9272 33.6553 15.517C32.7796 14.7387 33.6553 12.517 33.6553 12.517C33.6553 12.517 32.2963 12.5042 31.6553 12.017C31.4354 11.8499 31.321 11.7379 31.1553 11.517C30.7848 11.023 30.6553 10.017 30.6553 10.017C30.6553 10.017 30.3467 10.0553 30.1553 10.017C29.6137 9.90871 29.1553 9.01702 29.1553 9.01702C29.1553 9.01702 27.9802 9.50442 27.6553 9.01702C27.4387 8.69208 27.7037 8.40453 27.6553 8.01702C27.5787 7.40431 27.1553 6.51702 27.1553 6.51702C27.1553 6.51702 25.1599 7.11979 24.1553 6.51702C23.6817 6.23287 23.4518 5.98296 23.1553 5.51702C22.8238 4.99608 22.6553 4.01702 22.6553 4.01702C22.6553 4.01702 21.7339 4.10838 21.1553 4.01702C20.5454 3.92072 20.1762 3.84853 19.6553 3.51702C19.1893 3.22051 18.9696 2.9711 18.6553 2.51702C18.4067 2.15803 18.1553 1.51702 18.1553 1.51702H17.1553V2.51702C17.1553 2.51702 16.2204 2.67115 15.6553 2.51702C15.234 2.40214 15.0143 2.26555 14.6553 2.01702C14.2012 1.70265 14.1968 1.12533 13.6553 1.01702C13.4638 0.978726 13.1553 1.01702 13.1553 1.01702V6.01702H14.6553H15.6553H17.6553H19.6553L20.1553 6.51702L20.6553 8.01702L23.1553 8.51702L25.1553 9.51702L27.1553 11.017L28.1553 13.017L29.1553 15.017L30.6553 16.517L31.1553 19.017L31.6553 23.017V33.517H30.6553H11.6553C11.6553 33.517 11.7916 32.516 12.1553 32.017C12.5699 31.4481 13.6553 31.017 13.6553 31.017L15.6553 29.517C15.6553 29.517 16.7291 28.7274 17.1553 28.017Z" fill="#121212" stroke="black"/>
</svg>
