<svg width="49" height="48" viewBox="0 0 49 48" fill="none" xmlns="http://www.w3.org/2000/svg">
<path d="M49 24C49 37.2548 38.031 48 24.5 48C10.969 48 0 37.2548 0 24C0 10.7452 10.969 0 24.5 0C38.031 0 49 10.7452 49 24Z" fill="#FFCC4D"/>
<path d="M31 39.0685H35L34.5 31.5685L36 32.5685V30.5685L35.5 25.5685V21.0685L34 22.5685V22.0685V17.5685L35 16.5685C35 16.5685 35.0311 15.9578 35 15.5685C34.9358 14.766 34.6953 14.3496 34.5 13.5685C34.3047 12.7875 34.3939 12.2707 34 11.5685C33.5947 10.846 32.5 10.0685 32.5 10.0685C32.5 10.0685 31.9229 9.42373 31.5 9.0685C30.9609 8.61568 30 8.0685 30 8.0685L29 7.5685V6.5685C29 6.5685 28.7485 5.92749 28.5 5.5685C28.1856 5.11442 27.5 4.5685 27.5 4.5685C27.5 4.5685 26.9212 4.18338 26.5 4.0685C25.9349 3.91437 25 4.0685 25 4.0685C25 4.0685 24.3875 4.02006 24 4.0685C23.3873 4.14509 22.999 4.20482 22.5 4.5685C21.931 4.98316 21.8038 5.43337 21.5 6.0685C21.2336 6.62555 21 7.5685 21 7.5685L19 8.5685L17.5 9.5685C17.5 9.5685 16.8144 10.1144 16.5 10.5685C16.2515 10.9275 16 11.5685 16 11.5685C16 11.5685 15.1894 12.7161 15 13.5685C14.8306 14.331 15 15.5685 15 15.5685V17.0685L16 18.0685V22.5685L14.5 21.0685L14 32.5685L15.5 31.5685L15 39.0685H19L18 31.0685H20.5V28.0685C20.5 28.0685 19.904 27.1451 19.5 26.5685C18.9397 25.769 18.4053 25.4567 18 24.5685C17.5069 23.488 17.5884 22.7529 17.5 21.5685C17.4273 20.5949 17.5 19.0685 17.5 19.0685C17.5 19.0685 17.262 17.8124 17.5 17.0685C17.7146 16.398 18.0022 16.0663 18.5 15.5685C18.9978 15.0707 19.337 14.8053 20 14.5685C20.9194 14.2401 21.5325 14.4378 22.5 14.5685C23.2978 14.6763 23.7008 14.9716 24.5 15.0685C25.2754 15.1625 25.7316 15.2082 26.5 15.0685C27.1075 14.958 27.3925 14.679 28 14.5685C28.7684 14.4288 30 14.5685 30 14.5685C30 14.5685 31.001 14.7048 31.5 15.0685C32.069 15.4832 32.5 16.5685 32.5 16.5685V19.5685C32.5 19.5685 32.6827 21.4113 32.5 22.5685C32.3074 23.7883 32.089 24.483 31.5 25.5685C30.9037 26.6674 29.5 28.0685 29.5 28.0685V31.0685H32V32.0685L31 39.0685Z" fill="white" stroke="white" stroke-width="0.8"/>
<path d="M39 39.0684H35.5L34.5 32.0684L36 33.0684L37 33.5684L38.5 36.0684L39 39.0684Z" stroke="white" stroke-width="0.8"/>
<path d="M19 39.0684H30.5L32 31.5684H29L27.5 33.5684L25 38.0684L22.5 33.5684L20.5 31.0684H18L19 39.0684Z" stroke="white" stroke-width="0.8"/>
<path d="M11 39.0684H14.5L15 32.0684L12.5 33.5684L11.5 35.5684L11 39.0684Z" stroke="white" stroke-width="0.8"/>
<path d="M36 20.0684L34 22.0684V18.0684L34.5 17.5684C34.5 17.5684 35.0341 16.8649 35.5 16.5684C36.0209 16.2369 36.4325 16.3116 37 16.0684C37.4013 15.8964 38 15.5684 38 15.5684C38 15.5684 38.0484 16.1809 38 16.5684C37.9234 17.1811 37.7664 17.5113 37.5 18.0684C37.0788 18.9491 36 20.0684 36 20.0684Z" stroke="white" stroke-width="0.8"/>
<path d="M16.0001 18.0684V22.0684C16.0001 22.0684 14.7202 20.906 14.0001 20.0684C13.3637 19.328 12.5001 18.0684 12.5001 18.0684C12.5001 18.0684 12.115 17.4896 12.0001 17.0684C11.846 16.5032 12.0001 15.5684 12.0001 15.5684C12.0001 15.5684 12.9431 15.8019 13.5001 16.0684C14.1353 16.3721 15.0001 17.0684 15.0001 17.0684L16.0001 18.0684Z" stroke="white" stroke-width="0.8"/>
</svg>
