<svg width="49" height="48" viewBox="0 0 49 48" fill="none" xmlns="http://www.w3.org/2000/svg">
<path d="M49 24C49 37.2548 38.031 48 24.5 48C10.969 48 0 37.2548 0 24C0 10.7452 10.969 0 24.5 0C38.031 0 49 10.7452 49 24Z" fill="#74B564"/>
<path d="M16.0358 35.5977V40.5977H34.0358V35.5977L31.5358 37.5977L29.5358 35.5977L27.0358 37.5977L25.0358 35.5977L22.5358 37.5977L20.5358 35.5977L18.5358 37.5977L16.0358 35.5977Z" fill="white"/>
<path d="M34 24C34 24 34.3305 23.218 34.5 23C34.7681 22.6554 35.0358 22.0977 35.0358 22.0977L35.5358 20.5977L36.0358 19.5977C36.0358 19.5977 36.543 18.947 36.3683 18.5977C36.2449 18.3507 36 18 36 18L35.0358 18.5977C35.0358 18.5977 34.4371 18.9257 34.0358 19.0977C33.4682 19.3409 32.5358 19.5977 32.5358 19.5977C32.5358 19.5977 32.3038 18.9423 32.0358 18.5977C31.7677 18.253 31.8544 17.2676 31.5 16.5C31.0908 15.6136 30 14.5 30 14.5C30 14.5 29.2225 13.4053 28.5 13C27.7978 12.6061 26.5 12.5 26.5 12.5L25.0358 12L24 11.5L22.5 12.5L20.0358 13L19 13.5L18.0358 15C17.8469 15.5879 17.5358 16.5 17.5358 16.5L17.0358 19.0977C16.9975 19.2891 17.0358 19.5977 17.0358 19.5977L16.0358 19.0977L15.0358 18.5977L14.0358 18.0977C14.0358 18.0977 14.0358 18.7071 14.0358 19.0977C14.0358 19.4882 13.9873 19.7101 14.0358 20.0977C14.1123 20.7104 14.5358 21.5977 14.5358 21.5977L15.0358 22.5977C15.0358 22.5977 15.227 23.2889 15.5358 23.5977C15.8445 23.9064 16.1035 24.0359 16.5358 24.0977C16.7291 24.1253 17.0358 24.0977 17.0358 24.0977L17.5358 25.0977L18.0358 26.0977C18.0358 26.0977 18.5829 27.0586 19.0358 27.5977C19.391 28.0205 20.0358 28.5977 20.0358 28.5977L21.0358 29.5977V30.5977V31.5977C21.0358 31.5977 20.1215 31.5977 19.5358 31.5977C18.7547 31.5977 18.3042 31.4579 17.5358 31.5977C16.9282 31.7081 16.6215 31.9024 16.0358 32.0977C15.45 32.2929 15.0719 32.2913 14.5358 32.5977C13.8165 33.0087 13.52 32.9528 13 33.5977C12.558 34.1457 12.1808 34.9087 12.0358 35.5977C11.9553 35.9798 12.0358 36.5977 12.0358 36.5977V38.5977V40.0977V40.5977H16.0358M16.0358 40.5977V35.5977L18.5358 37.5977L20.5358 35.5977L22.5358 37.5977L25.0358 35.5977L27.0358 37.5977L29.5358 35.5977L31.5358 37.5977L34.0358 35.5977V40.5977H16.0358Z" stroke="white" stroke-width="0.8"/>
<path d="M34 40.5977H37.5C37.5 40.5977 38.6668 36.901 37.5 35.0977C37.05 34.4021 37.0858 34.1834 36.5 33.5977C35.9142 33.0119 35.2193 32.5087 34.5 32.0977C33.6355 31.6037 32 31.5977 32 31.5977C32 31.5977 30.1867 31.1461 29 31.0977C28.6098 31.0817 28 31.0977 28 31.0977V29.0977C28 29.0977 28.9536 28.2203 29.5 27.5977C30.144 26.8638 30.4397 26.3972 31 25.5977C31.404 25.0211 32 24.0977 32 24.0977L32.5 23.5" stroke="white" stroke-width="0.8"/>
<path d="M18 30L20 28.5L18 27L17 24.5H16.5L15 23.5L13.9998 20.0977V24.0977C13.9998 24.0977 13.6566 27.6126 14.4998 29.5977L15.5 30.5C16.3284 31.0523 18 30 18 30Z" fill="white" stroke="white" stroke-width="0.8"/>
<path d="M20.6711 7.60392C19.4514 7.90283 18.6792 7.94439 17.6193 8.61426L15.9975 10.5561L14.9987 12.0802C14.9987 12.0802 14.1179 13.3319 14.0589 13.6659C14 14 14.0589 16.1918 14.0589 16.1918V18.2125L16.497 19.1924L17.6193 15.1283L18.4947 13.0962L21.4913 12.0802L22.9896 11.5722L25.4867 11.6453L28.4833 13.0962L30.9804 15.1283L32.4787 19.1924L34.5 18.5C34.5 18.5 35 18.3083 35 17.5V17C35 17 34.6902 15.6412 34.4041 14.6763C34.1018 13.6572 33.3868 12.1504 33.3868 12.1504C33.3868 12.1504 32.317 10.4478 31.3523 9.62459C30.4738 8.87491 28.8092 8.10909 28.8092 8.10909C28.8092 8.10909 27.3178 7.2922 26.266 7.09875C25.2895 6.91914 24.7133 7.02534 23.7229 7.09875C22.518 7.18806 21.8441 7.31644 20.6711 7.60392Z" fill="white"/>
<path d="M34.9127 27.2255L34.4764 23.2566L33.4776 24.7806L32.4787 24.2726V24.7806L31.4799 25.7966L30 27.5L27.8809 29.8608L29 29.5C29 29.5 30.6854 29.6635 31.4799 29.8608C32.2744 30.0581 32.8671 30.0078 33.6666 29.8313C34.1002 29.7356 34.5 29 34.5 29C34.5 29 34.8287 28.4353 34.9127 28C34.9918 27.5899 34.9127 27.2255 34.9127 27.2255Z" fill="white"/>
<path d="M27.7919 29.8313L27.8809 29.8608M27.8809 29.8608L29 29.5C29 29.5 30.6854 29.6635 31.4799 29.8608C32.2744 30.0581 32.8671 30.0078 33.6666 29.8313C34.1002 29.7356 34.5 29 34.5 29C34.5 29 34.8287 28.4353 34.9127 28C34.9918 27.5899 34.9127 27.2255 34.9127 27.2255L34.4764 23.2566L33.4776 24.7806L32.4787 24.2726V24.7806L31.4799 25.7966L30 27.5L27.8809 29.8608ZM17.6193 8.61426C18.6792 7.94439 19.4514 7.90283 20.6711 7.60392C21.8441 7.31644 22.518 7.18806 23.7229 7.09875C24.7133 7.02534 25.2895 6.91914 26.266 7.09875C27.3178 7.2922 28.8092 8.10909 28.8092 8.10909C28.8092 8.10909 30.4738 8.87491 31.3523 9.62459C32.317 10.4478 33.3868 12.1504 33.3868 12.1504C33.3868 12.1504 34.1018 13.6572 34.4041 14.6763C34.6902 15.6412 35 17 35 17V17.5C35 18.3083 34.5 18.5 34.5 18.5L32.4787 19.1924L30.9804 15.1283L28.4833 13.0962L25.4867 11.6453L22.9896 11.5722L21.4913 12.0802L18.4947 13.0962L17.6193 15.1283L16.497 19.1924L14.0589 18.2125V16.1918C14.0589 16.1918 14 14 14.0589 13.6659C14.1179 13.3319 14.9987 12.0802 14.9987 12.0802L15.9975 10.5561L17.6193 8.61426Z" stroke="white" stroke-width="0.8"/>
<path d="M33.9999 23.5977L34.5 23.5M32 23.5L32.9999 24.0977C32.9999 24.0977 33.3152 24.1608 33.4999 24.0977C33.7519 24.0116 34.5 23.5 34.5 23.5M34.5 23.5L34.4999 23.0977" stroke="white" stroke-width="0.8"/>
</svg>
