<svg width="35" height="43" viewBox="0 0 35 43" fill="none" xmlns="http://www.w3.org/2000/svg">
<path d="M17.5 19.5V29H19V19.5H26C26 19.5 26.8959 23.3349 26 25.5C25.8331 25.9034 25.5 26.5 25.5 26.5V42H27L34.5 34V17L33.5 14.5C33.5 14.5 33.0178 12.9152 32.5 12C31.8844 10.9118 31.337 10.4288 30.5 9.5C29.7605 8.67948 28.5 7.5 28.5 7.5C28.5 7.5 27.0656 6.15392 26 5.5C25.2557 5.04328 24 4.5 24 4.5C24 4.5 22.8472 3.71179 22 3.5C21.0528 3.26321 19.5 3.5 19.5 3.5H18.5V1H17.5V3.5H16.5C16.5 3.5 14.9665 3.36193 14 3.5C12.7775 3.67465 11 4.5 11 4.5C11 4.5 9.71797 5.00294 9 5.5C8.09183 6.12873 7 7.5 7 7.5C7 7.5 5.68139 8.63064 5 9.5C4.29764 10.3961 3.5 12 3.5 12C3.5 12 2.50268 13.4784 2 14.5C1.53575 15.4435 1 17 1 17V34L9 42H10.5V26.5C10.5 26.5 9.8266 25.9454 9.5 25.5C8.22982 23.7679 10 19.5 10 19.5H10.5H17.5Z" fill="#121212" stroke="black"/>
</svg>
