<svg width="49" height="48" viewBox="0 0 49 48" fill="none" xmlns="http://www.w3.org/2000/svg">
<path d="M49 24C49 37.2548 38.031 48 24.5 48C10.969 48 0 37.2548 0 24C0 10.7452 10.969 0 24.5 0C38.031 0 49 10.7452 49 24Z" fill="#496AD0"/>
<path d="M34.1666 10L16.4443 27.7222L18.861 29.9192L20.8749 31.75L38.1943 14.4306V10H34.1666Z" stroke="white" stroke-linecap="round"/>
<path d="M15.639 25.7084C16.111 26.1532 16.0418 27.3195 16.0418 27.3195L20.8752 32.1528C20.8752 32.1528 22.3405 31.9705 22.8891 32.5556C23.5345 33.2441 23.5032 34.2557 22.8891 34.9723C22.1725 35.8083 20.7862 35.8083 20.0696 34.9723C19.6475 34.4799 19.6668 33.3612 19.6668 33.3612L14.8335 28.9306C14.8335 28.9306 13.6906 28.9765 13.2224 28.5278C12.541 27.8748 12.6165 26.8348 13.2224 26.1112C13.8366 25.3775 14.9428 25.0522 15.639 25.7084Z" stroke="white" stroke-linecap="round"/>
<path d="M13.2222 33.7639L15.6388 30.1389L18.4583 32.5556L14.8333 35.375L13.2222 33.7639Z" stroke="white" stroke-linecap="round"/>
<path d="M11.6113 33.3611L15.2363 36.9861" stroke="white" stroke-linecap="round"/>
<circle cx="12.4167" cy="36.1806" r="1.91667" fill="white" stroke="white"/>
<path d="M33.3613 28.1251L30.9447 30.322L28.9308 32.1528M11.6113 10.4028H15.6391L24.5002 19.2639M11.6113 10.4028V14.8334L20.4724 23.6945M11.6113 10.4028L22.4863 21.6806" stroke="white" stroke-linecap="round"/>
<path d="M24.9028 28.125L28.9306 31.75" stroke="white" stroke-linecap="round"/>
<path d="M29.3335 23.2917L33.3613 27.7223" stroke="white" stroke-linecap="round"/>
<path d="M27.3193 26.1111L30.9443 29.7361" stroke="white" stroke-linecap="round"/>
<path d="M34.1666 26.1112C33.6946 26.556 33.7638 27.7223 33.7638 27.7223L28.9305 32.5557C28.9305 32.5557 27.4652 32.3733 26.9166 32.9584C26.2711 33.6469 26.3024 34.6585 26.9166 35.3751C27.6332 36.2111 29.0195 36.2111 29.7361 35.3751C30.1581 34.8827 30.1388 33.764 30.1388 33.764L34.9722 29.3334C34.9722 29.3334 36.115 29.3794 36.5833 28.9307C37.2647 28.2777 37.1891 27.2376 36.5833 26.514C35.9691 25.7804 34.8629 25.455 34.1666 26.1112Z" stroke="white" stroke-linecap="round"/>
<path d="M36.5835 34.1667L34.1668 30.5417L31.3474 32.9584L34.9724 35.7779L36.5835 34.1667Z" stroke="white" stroke-linecap="round"/>
<path d="M38.1943 33.7639L34.5693 37.3889" stroke="white" stroke-linecap="round"/>
<circle cx="2.41667" cy="2.41667" r="1.91667" transform="matrix(-1 0 0 1 39.8057 34.1667)" fill="white" stroke="white"/>
<path d="M37.7919 10.4028L18.8613 29.3334" stroke="white" stroke-linecap="round"/>
</svg>
