<svg width="49" height="48" viewBox="0 0 49 48" fill="none" xmlns="http://www.w3.org/2000/svg">
<path d="M49 24C49 37.2548 38.031 48 24.5 48C10.969 48 0 37.2548 0 24C0 10.7452 10.969 0 24.5 0C38.031 0 49 10.7452 49 24Z" fill="#0D6CF2"/>
<path d="M14.1459 35.0845C13.1285 33.3179 12.6459 30.0845 12.6459 30.0845C12.6459 30.0845 12.0018 29.8374 11.6459 29.5845C10.7179 28.9248 10.1459 27.0845 10.1459 27.0845C10.1459 27.0845 9.81757 25.5039 10.1459 24.5845C10.3827 23.9215 10.5902 23.5167 11.1459 23.0845C11.4906 22.8164 11.71 22.5603 12.1459 22.5845C12.8489 22.6235 13.1459 24.0845 13.1459 24.0845L13.6459 22.5845C13.6459 22.5845 14.3103 20.7729 14.6459 19.5845C14.8648 18.8097 14.7617 18.292 15.1459 17.5845C15.7427 16.4858 16.547 16.1808 17.6459 15.5845C18.7314 14.9955 19.4449 14.872 20.6459 14.5845C22.1769 14.2179 23.0717 14.0845 24.6459 14.0845C26.2202 14.0845 27.1047 14.2636 28.6459 14.5845C30.0376 14.8742 31.0275 14.7071 32.1459 15.5845C32.9141 16.187 33.2435 16.6949 33.6459 17.5845C33.9778 18.318 33.9052 18.8162 34.1459 19.5845C34.4604 20.5879 35.1459 22.0845 35.1459 22.0845L35.6459 24.0845L36.1459 23.5845C36.1459 23.5845 36.2317 22.7225 36.6459 22.5845C37.0602 22.4464 37.3292 22.784 37.6459 23.0845C38.23 23.6386 38.0381 24.2866 38.1459 25.0845C38.2767 26.052 38.3827 26.6373 38.1459 27.5845C37.9341 28.4316 37.8445 29.0605 37.1459 29.5845C36.652 29.955 35.6459 30.0845 35.6459 30.0845C35.6459 30.0845 35.7122 31.0025 35.6459 31.5845C35.4776 33.062 34.9206 33.8151 34.1459 35.0845C33.3515 36.3862 32.7862 37.0717 31.6459 38.0845C30.5932 39.0195 29.9235 39.4925 28.6459 40.0845C27.3561 40.6821 26.562 40.9604 25.1459 41.0845C23.5777 41.2219 22.6535 41.0379 21.1459 40.5845C19.2208 40.0054 18.1611 39.4058 16.6459 38.0845C15.4966 37.0821 14.9071 36.406 14.1459 35.0845Z" stroke="white" stroke-linecap="round"/>
<path d="M11.1462 18.5846C11.2045 19.9641 11.6462 22.0846 11.6462 22.0846L13.1462 22.5846L13.6462 20.5846L14.6462 17.0846L18.1462 15.0846L22.6462 13.5846L28.1462 14.0846L32.6462 15.5846L34.6462 18.5846L35.6462 22.5846L37.1462 22.0846C37.1462 22.0846 37.2638 19.6422 37.1462 18.0846C37.0423 16.7078 37.0773 15.8963 36.6462 14.5846C35.9869 12.5781 35.183 11.5335 33.6462 10.0846C32.3059 8.82088 31.3765 8.21672 29.6462 7.58458C27.4377 6.77771 25.9966 7.01989 23.6462 7.08458C21.8787 7.13323 20.8375 7.0688 19.1462 7.58458C17.2233 8.171 16.1909 8.79791 14.6462 10.0846C13.263 11.2368 12.3765 11.9391 11.6462 13.5846C10.8502 15.3782 11.0634 16.624 11.1462 18.5846Z" fill="white" stroke="white" stroke-linecap="round"/>
</svg>
