<svg width="49" height="48" viewBox="0 0 49 48" fill="none" xmlns="http://www.w3.org/2000/svg">
<path d="M49 24C49 37.2548 38.031 48 24.5 48C10.969 48 0 37.2548 0 24C0 10.7452 10.969 0 24.5 0C38.031 0 49 10.7452 49 24Z" fill="#496AD0"/>
<path d="M13.2139 23.9795L20.0975 14.3425H29.2755C29.2755 14.3425 31.2485 16.8481 32.4879 18.4727C33.5749 19.8975 34.3696 20.5781 35.2413 22.1439C35.9052 23.3364 36.1878 24.061 36.618 25.3562C37.1388 26.9243 37.5358 29.4864 37.5358 29.4864C37.5358 29.4864 38.1276 30.016 38.4536 30.4042C38.8692 30.8989 39.1541 31.1724 39.3714 31.7809C39.6728 32.6247 39.5922 33.207 39.3714 34.0754C39.1139 35.0882 38.7062 35.6045 37.9947 36.3699C37.3847 37.0262 36.7566 37.0789 36.1591 37.7466C35.7282 38.2282 35.6847 38.6533 35.2413 39.1234C34.5243 39.8835 32.9468 40.5001 32.9468 40.5001H16.4262C16.4262 40.5001 14.8424 40.2352 14.1317 39.5823C13.6559 39.1451 13.6125 38.7141 13.2139 38.2055C12.5885 37.4076 11.8425 37.2712 11.3783 36.3699C10.9598 35.5576 10.8759 34.9882 10.9194 34.0754C10.9545 33.3373 11.3783 32.2398 11.3783 32.2398L10.4605 30.4042C10.4605 30.4042 10.0185 29.3073 10.0016 28.5686C9.97561 27.4354 10.2728 26.746 10.9194 25.8151C11.574 24.8727 13.2139 23.9795 13.2139 23.9795Z" stroke="white" stroke-linecap="round"/>
<path d="M19.965 13.8835C19.965 13.8835 19.1792 13.3664 19.1792 12.9657C19.1792 12.5649 19.965 12.0479 19.965 12.0479H29.2737C29.2737 12.0479 30.154 12.4603 30.1929 12.9657C30.2236 13.3652 29.2751 13.8835 29.2751 13.8835H19.965Z" fill="white" stroke="white" stroke-linecap="round"/>
<path d="M18.2617 9.29452C18.4505 10.3223 19.6384 11.589 19.6384 11.589H29.2754C29.2754 11.589 30.1952 11.1281 30.6521 10.6712C31.109 10.2143 31.5699 9.94068 31.5699 9.29452C31.5699 8.64836 31.1743 8.29839 30.6521 7.91781C30.1941 7.58402 29.8392 7.4017 29.2754 7.4589C28.6326 7.52412 28.5431 8.42387 27.8987 8.37671C27.499 8.34747 27.3492 8.07566 26.9809 7.91781C26.46 7.69457 26.1599 7.57005 25.6042 7.4589C24.7255 7.28317 24.1535 7.15752 23.3097 7.4589C22.7011 7.67623 22.5774 8.42387 21.933 8.37671C21.5333 8.34747 21.3646 8.11387 21.0151 7.91781C20.4516 7.60167 20.2846 7 19.6384 7C18.9923 7 18.5383 7.33385 18.2617 7.91781C18.0316 8.40369 18.1646 8.76573 18.2617 9.29452Z" stroke="white" stroke-linecap="round"/>
<path d="M29.2741 21.2261C29.5753 21.7061 29.8899 22.0582 29.733 22.6028C29.5541 23.2237 29.0001 23.4648 28.3563 23.5206C27.4636 23.5979 27.3371 22.5132 26.5207 22.1439C25.8475 21.8393 25.4207 21.6154 24.6851 21.685C23.8872 21.7605 23.3303 21.9616 22.8495 22.6028C22.5094 23.0562 22.3224 23.4169 22.3906 23.9795C22.5163 25.0169 23.759 24.8721 24.6851 25.3562C25.8946 25.9885 27.8974 26.7329 27.8974 26.7329C27.8974 26.7329 29.7568 27.5067 30.1919 28.5685C30.5317 29.3977 30.4518 30.0055 30.1919 30.8631C29.8591 31.9613 29.2932 32.495 28.3563 33.1576C27.5683 33.7148 26.0618 34.0754 26.0618 34.0754C26.0618 34.0754 26.4174 35.2886 26.0618 35.911C25.7412 36.472 25.3312 36.8288 24.6851 36.8288C24.0389 36.8288 23.629 36.472 23.3084 35.911C22.9527 35.2886 23.3084 34.0754 23.3084 34.0754C23.3084 34.0754 22.7471 34.112 22.3906 34.0754C21.4305 33.9769 20.096 33.1576 20.096 33.1576C20.096 33.1576 18.8269 32.5336 18.7193 31.7809C18.6392 31.2199 18.7182 30.7351 19.1782 30.4042C19.7781 29.9727 20.4914 30.3405 21.0138 30.8631C21.4727 31.322 22.0084 31.9308 22.8495 32.2398C23.8588 32.6106 24.5655 32.5227 25.6029 32.2398C26.3761 32.0289 26.9576 31.9631 27.4385 31.322C27.7785 30.8686 28.1509 30.4521 27.8974 29.9453C27.4384 29.0275 26.5206 29.0275 25.6029 28.5685C24.3106 27.9223 22.3906 26.7329 22.3906 26.7329C22.3906 26.7329 20.6437 25.9057 20.096 24.8973C19.7434 24.248 19.5575 23.7963 19.6371 23.0617C19.7608 21.9209 20.5529 21.4533 21.4727 20.7672C22.1152 20.288 23.3084 19.8494 23.3084 19.8494C23.3084 19.8494 22.9527 18.6362 23.3084 18.0138C23.629 17.4527 24.0389 17.0959 24.6851 17.0959C25.3312 17.0959 25.7412 17.4527 26.0618 18.0138C26.4174 18.6362 26.0618 19.8494 26.0618 19.8494C26.0618 19.8494 28.5487 20.07 29.2741 21.2261Z" fill="white" stroke="white" stroke-linecap="round"/>
</svg>
