<svg width="49" height="48" viewBox="0 0 49 48" fill="none" xmlns="http://www.w3.org/2000/svg">
<path d="M49 24C49 37.2548 38.031 48 24.5 48C10.969 48 0 37.2548 0 24C0 10.7452 10.969 0 24.5 0C38.031 0 49 10.7452 49 24Z" fill="#496AD0"/>
<path d="M27.2792 9C25.8598 9 23.4942 20.355 23.4942 20.355C23.4942 20.355 13.0854 23.1937 13.0854 24.14C13.0854 25.0862 23.4942 28.3981 23.4942 28.3981C23.4954 28.4034 26.3332 40.6994 27.2792 40.6994C28.2254 40.6994 31.5373 28.3981 31.5373 28.3981C31.5373 28.3981 40.9998 25.5594 40.9998 24.6131C40.9998 23.6669 31.5373 20.355 31.5373 20.355C31.5373 20.355 28.6986 9 27.2792 9Z" fill="white" stroke="white" stroke-linecap="round"/>
<path d="M12.6128 9.47314C12.1397 9.47312 11.1934 12.785 11.1934 12.785C11.1934 12.785 8.82776 13.2581 8.35469 13.7313C7.88161 14.2044 7.88193 14.6775 8.35469 15.1506C8.82745 15.6238 11.1934 16.0969 11.1934 16.0969L12.6128 18.9356C12.6128 18.9356 13.0862 19.8819 13.5591 18.9356C14.0319 17.9894 14.5053 16.0969 14.5053 16.0969C14.5053 16.0969 16.8709 15.1506 17.3441 14.6775C17.8172 14.2044 17.8172 14.2044 17.3441 13.7313C16.8709 13.2581 14.5053 12.785 14.5053 12.785C14.5053 12.785 13.5591 9.47308 13.0859 9.47314H12.6128Z" fill="white" stroke="white" stroke-linecap="round"/>
<path d="M16.8702 28.8713C16.3971 28.8713 15.3324 32.6563 15.3324 32.6563C15.3324 32.6563 12.7697 33.6026 12.2966 34.0757C11.8235 34.5488 11.8239 34.366 12.2967 34.8391C12.7694 35.3123 15.3324 35.9682 15.3324 35.9682L16.3971 40.2263C16.3971 40.2263 16.8705 41.1726 17.3433 40.2263C17.8161 39.2801 18.6443 35.9682 18.6443 35.9682C18.6443 35.9682 21.0099 35.3123 21.483 34.8391C21.9561 34.366 22.0746 34.5488 21.6014 34.0757C21.1283 33.6026 18.6443 32.6563 18.6443 32.6563C18.6443 32.6563 17.3433 28.8713 16.8702 28.8713Z" fill="white"/>
<path d="M16.8702 28.8713C16.3971 28.8713 15.3324 32.6563 15.3324 32.6563C15.3324 32.6563 12.7697 33.6026 12.2966 34.0757C11.8235 34.5488 11.8239 34.366 12.2967 34.8391C12.7694 35.3123 15.3324 35.9682 15.3324 35.9682L16.3971 40.2263C16.3971 40.2263 16.8705 41.1726 17.3433 40.2263C17.8161 39.2801 18.6443 35.9682 18.6443 35.9682C18.6443 35.9682 21.0099 35.3123 21.483 34.8391C21.9561 34.366 22.0746 34.5488 21.6014 34.0757C21.1283 33.6026 18.6443 32.6563 18.6443 32.6563C18.6443 32.6563 17.3433 28.8713 16.8702 28.8713ZM16.8702 28.8713C17.3433 28.8714 16.3971 28.8714 16.8702 28.8713Z" stroke="white" stroke-linecap="round"/>
</svg>
