<svg width="49" height="48" viewBox="0 0 49 48" fill="none" xmlns="http://www.w3.org/2000/svg">
<path d="M49 24C49 37.2548 38.031 48 24.5 48C10.969 48 0 37.2548 0 24C0 10.7452 10.969 0 24.5 0C38.031 0 49 10.7452 49 24Z" fill="#7B61FF"/>
<path d="M16.3564 39.2326C15.8482 38.6981 15.6226 38.2894 15.461 37.5698C15.3297 36.985 15.3889 36.63 15.461 36.0349C15.5354 35.4216 15.6272 35.0783 15.8447 34.5001C16.0414 33.9774 16.2345 33.7205 16.4843 33.221C16.734 32.7215 16.9757 32.4804 17.1238 31.9419C17.2438 31.5058 17.2468 31.243 17.2517 30.7907C17.2572 30.2888 17.1238 29.5117 17.1238 29.5117C17.1238 29.5117 17.1031 28.8875 17.1238 28.4884C17.1473 28.0367 17.3282 27.7831 17.2517 27.3372C17.1874 26.9623 17.0251 26.7884 16.868 26.4419C16.4251 25.4651 15.9438 25.0237 15.5889 24.0117C15.2518 23.0502 15.1686 22.4682 15.0773 21.4535C15.0012 20.6078 14.9504 20.1187 15.0773 19.2791C15.186 18.56 15.3189 18.1637 15.5889 17.4884C16.0471 16.3429 16.4356 15.7275 17.2517 14.8023C18.1705 13.7609 18.968 13.4786 20.0657 12.6279C21.4162 11.5813 22.1967 11.0237 23.5192 9.94187C24.534 9.1117 24.9884 8.49782 26.0773 7.76744C26.5611 7.44295 27.3564 7 27.3564 7C27.3564 7 28.343 7.38214 28.8913 7.76744C30.0602 8.58883 30.3684 9.46239 31.0657 10.7093C31.6996 11.8428 32.3448 13.7791 32.3448 13.7791L33.4959 17.4884C33.4959 17.4884 33.9324 19.2666 34.0076 20.4303C34.1274 22.2853 33.918 23.3524 33.4959 25.1628C33.1809 26.5142 32.8846 27.2591 32.3822 28.5223L32.3448 28.6163C31.8987 29.738 31.7109 30.4101 31.0657 31.4303C30.4777 32.36 30.0302 32.8049 29.275 33.6047C28.5714 34.3499 28.1475 34.7439 27.3564 35.3954C26.6392 35.9861 25.4378 36.8024 25.4378 36.8024C25.4378 36.8024 24.3665 37.598 23.775 38.2094C23.2814 38.7196 23.1673 39.1596 22.6238 39.6163C21.9397 40.1912 21.4587 40.4927 20.5773 40.6396C19.6296 40.7976 18.1471 40.2559 18.1471 40.2559C18.1471 40.2559 16.9114 39.8163 16.3564 39.2326Z" stroke="white"/>
<path d="M25.182 34.3723C25.182 34.3723 26.4286 33.6069 27.1006 32.9653C27.7946 32.3027 28.6355 31.0467 28.6355 31.0467C28.6355 31.0467 29.5909 29.6964 30.0424 28.7444C30.496 27.788 30.7119 27.2203 30.9378 26.1862C31.152 25.2054 31.1463 24.631 31.1936 23.6281C31.2359 22.73 31.2528 22.2229 31.1936 21.3258C31.1103 20.0638 30.9322 19.3677 30.682 18.1281C30.4686 17.0711 30.4218 16.4514 30.0424 15.442C29.7281 14.6056 29.5144 14.1393 29.0192 13.3955C28.6257 12.8046 27.868 11.9885 27.868 11.9885C27.868 11.9885 27.3886 12.2011 27.1006 12.3722C26.5506 12.699 26.3528 13.0392 25.8215 13.3955C25.209 13.8063 24.1587 14.2909 24.1587 14.2909L21.8564 15.442C21.8564 15.442 20.986 15.9683 20.4494 16.3374C19.832 16.7619 19.4146 16.9306 18.9145 17.4885C18.377 18.0884 18.1927 18.5323 17.8912 19.2792C17.5829 20.0432 17.3522 20.5024 17.3796 21.3258C17.4038 22.0526 17.6507 22.4301 17.8912 23.1165C18.0692 23.6242 18.1245 23.9352 18.4029 24.3955C18.7141 24.9102 19.4261 25.5467 19.4261 25.5467C19.4261 25.5467 20.2484 26.1552 20.8331 26.442C21.5422 26.7899 21 28.5 21 28.5" stroke="white" stroke-linecap="round"/>
</svg>
