<svg width="49" height="48" viewBox="0 0 49 48" fill="none" xmlns="http://www.w3.org/2000/svg">
<path d="M49 24C49 37.2548 38.031 48 24.5 48C10.969 48 0 37.2548 0 24C0 10.7452 10.969 0 24.5 0C38.031 0 49 10.7452 49 24Z" fill="#C1694F"/>
<path d="M39.1509 17.8596C39.1509 17.8596 40.0268 15.6734 40.0656 14.2012C40.0702 14.0226 40.0908 13.9207 40.0656 13.7439C40.0091 13.3485 39.8534 13.1445 39.6082 12.8292C39.2129 12.321 38.8221 12.1819 38.2363 11.9146C37.5664 11.6089 37.089 11.7351 36.4071 11.4573C36.0373 11.3066 35.9498 11 35.4925 11H33.6632H31.3767H30.0047C29.5474 11 29.5474 12.3719 29.5474 12.3719C29.5474 12.3719 29.7026 14.0555 29.5474 15.1158C29.4408 15.8444 29.2535 16.227 29.0901 16.945C28.8881 17.833 29.0064 18.4011 28.6328 19.2316C28.2665 20.0459 27.2609 21.0608 27.2609 21.0608L25.889 22.4327C25.889 22.4327 25.0979 23.0695 24.517 23.3474C24.0076 23.591 23.1451 23.8047 23.1451 23.8047C23.1451 23.8047 22.0483 24.1862 21.3159 24.262C20.7829 24.3171 19.9439 24.262 19.9439 24.262H18.572H17.2001H16.7428C16.7428 24.262 16.1476 24.1022 15.8282 24.262C15.6023 24.3749 15.3709 24.7193 15.3709 24.7193L14.9135 25.6339H14.4562C14.4562 25.6339 14.1684 25.5774 13.9989 25.6339C13.6201 25.7602 13.5416 26.5485 13.5416 26.5485C13.5416 26.5485 13.2594 26.5135 13.0843 26.5485C12.589 26.6476 12.1697 27.4631 12.1697 27.4631L11.7124 28.3778C11.7124 28.3778 11.1464 28.3003 10.7978 28.3778C10.4079 28.4644 10.1227 28.5156 9.88314 28.8351C9.56168 29.2637 9.88314 30.207 9.88314 30.207C9.88314 30.207 9.28374 30.4191 8.96852 30.6643C8.46025 31.0596 8.18254 31.4053 8.05391 32.0362C7.9068 32.7577 8.06127 33.2826 8.51121 33.8655C8.99925 34.4977 9.56562 34.5864 10.3405 34.7801C11.2067 34.9967 12.627 34.7801 12.627 34.7801L13.9989 34.3228C13.9989 34.3228 14.8171 34.6693 15.3709 34.7801C16.2465 34.9552 16.7669 34.7136 17.6574 34.7801C18.7407 34.8609 19.3149 35.2374 20.4013 35.2374C21.4876 35.2374 23.1451 34.7801 23.1451 34.7801C23.1451 34.7801 25.036 33.773 26.3463 33.4082C27.3928 33.1168 28.0044 32.9158 29.0901 32.9509C30.0003 32.9802 31.3767 33.4082 31.3767 33.4082C31.3767 33.4082 33.0239 34.0522 34.1205 34.3228C35.1752 34.583 35.7995 34.9947 36.8644 34.7801C37.6473 34.6223 38.037 34.3201 38.6936 33.8655C39.5243 33.2904 40.0602 32.9343 40.5229 32.0362C40.9399 31.2267 40.9297 30.6589 40.9802 29.7497C41.0502 28.4888 40.9432 27.7394 40.5229 26.5485C40.257 25.7954 39.6082 24.7193 39.6082 24.7193C39.6082 24.7193 38.8646 23.4989 38.6936 22.6219C38.5428 21.8482 38.6936 20.6035 38.6936 20.6035L39.1509 17.8596Z" stroke="white" stroke-width="1.5"/>
<path d="M12.1701 30.2069H10.3408C10.3408 30.2069 11.2554 29.2921 11.7127 29.2922C12.1701 29.2923 12.6274 29.2922 12.6274 29.2922H14.4566C14.4566 29.2922 14.9139 29.497 14.9139 29.7495C14.9139 30.0021 14.4566 30.2069 14.4566 30.2069H13.542H12.1701Z" fill="white" stroke="white" stroke-width="0.5"/>
<path d="M14.4565 26.5483H15.8285H16.2858" stroke="white" stroke-width="0.5" stroke-linecap="round"/>
<path d="M15.8281 25.6338H16.7427" stroke="white" stroke-width="0.5" stroke-linecap="round"/>
<path d="M14.4562 28.3776H12.627C12.627 28.3776 13.1517 28.0069 13.5416 27.9203C13.8902 27.8428 14.4562 27.9203 14.4562 27.9203C14.4562 27.9203 15.2111 27.6008 15.3708 27.9203C15.4507 28.08 15.3708 28.3776 15.3708 28.3776H14.4562Z" fill="white" stroke="white" stroke-width="0.5"/>
</svg>
