<svg width="49" height="49" viewBox="0 0 49 49" fill="none" xmlns="http://www.w3.org/2000/svg">
<path d="M11.5003 32.5C12.8164 32.0827 15.0003 32 15.0003 32L17.5003 34L20.0003 35.5L23.0003 37L26.0003 37.5L29.0003 37L31.5003 35.5L33.0003 34L34.5003 32C34.5003 32 37.0009 32.0202 38.5003 32.5C39.7478 32.8992 40.3538 33.3666 41.5003 34C42.4969 34.5506 43.1441 34.7496 44.0003 35.5C45.3857 36.7141 46.5003 39.5 46.5003 39.5C46.5003 39.5 47.5987 41.5682 48.0003 43C48.5303 44.8894 48.5003 48 48.5003 48H1.00031C1.00031 48 0.970327 44.8894 1.50031 43C1.90193 41.5682 3.00031 39.5 3.00031 39.5C3.00031 39.5 4.32874 36.0858 5.50031 35.5L8.50031 34C9.67188 33.4142 10.2517 32.8959 11.5003 32.5Z" fill="#121212" stroke="black"/>
<path d="M27.5005 33.5C27.0005 34 25.5005 34 25.0005 34C24.5005 34 23.0005 34 22.5005 33.5C22.0005 33 20.0005 32 20.0005 32C20.0005 32 18.0005 31 17.5005 30C17.0005 29 16.0005 27.5 16.0005 27.5L15.0005 25.5L14.0005 23L12.5005 21.5C12.5005 21.5 11.5005 20.5 11.5005 20V18.5C11.5005 18 12.5005 17 12.5005 17L13.5005 16.5L14.5005 16L15.0005 14.5V13H16.5005L18.5005 14L20.5005 14.5L23.5005 15H26.5005L29.5005 14.5L31.5005 14L34.0005 13H35.5005V16C35.5005 16 36.4525 16.058 37.0005 16.5C37.6453 17.02 37.7385 17.2141 38.0005 18C38.1857 18.5557 38.1063 18.9239 38.0005 19.5C37.7948 20.6198 37.4611 20.8887 36.5005 21.5C35.8213 21.9322 35.0005 23 35.0005 23C35.0005 23 34.9089 24.592 34.5005 25.5C34.1 26.3904 33.0005 27.5 33.0005 27.5L31.5005 30C31.5005 30 30.3381 31.2799 29.5005 32C28.7601 32.6364 28.0005 33 27.5005 33.5Z" stroke="black"/>
<path d="M19.0005 19.5H22.0005" stroke="black"/>
<path d="M27.5005 19.5H30.0005" stroke="black"/>
<path d="M13.5005 9.5V15.5L15.0005 14.5V12.5H16.5005L18.5005 13.5L23.5005 14.5H26.0005L29.0005 14L32.0005 13L34.0005 12.5H35.0005L35.5005 13V9.5H33.0005L30.5005 10.5L28.5005 11H24.5005H20.5005L18.0005 10.5L16.0005 9.5H13.5005Z" fill="#121212"/>
<path d="M35.5005 13V9.5H33.0005L30.5005 10.5L28.5005 11H24.5005H20.5005L18.0005 10.5L16.0005 9.5H13.5005V15.5L15.0005 14.5V12.5H16.5005L18.5005 13.5L23.5005 14.5H26.0005L29.0005 14L32.0005 13L34.0005 12.5H35.0005L35.5005 13ZM35.5005 13V15.5" stroke="black"/>
<path d="M13.0005 7L7.00049 6L23.0005 1L41.5005 3.5L39.0005 5H41.5005V12C41.5005 12 43.2331 12.561 43.5005 13.5C43.721 14.2743 43.0005 15.5 43.0005 15.5L41.5005 17L40.0005 15.5C40.0005 15.5 38.8598 14.3618 39.0005 13.5C39.1839 12.3763 41.5005 12 41.5005 12V5H39.0005L25.5005 9L13.0005 7Z" fill="#121212"/>
<path d="M39.0005 5L25.5005 9L13.0005 7L7.00049 6L23.0005 1L41.5005 3.5L39.0005 5ZM39.0005 5H41.5005V12M41.5005 12C41.5005 12 39.1839 12.3763 39.0005 13.5C38.8598 14.3618 40.0005 15.5 40.0005 15.5L41.5005 17L43.0005 15.5C43.0005 15.5 43.721 14.2743 43.5005 13.5C43.2331 12.561 41.5005 12 41.5005 12Z" stroke="black"/>
</svg>
