<svg width="49" height="48" viewBox="0 0 49 48" fill="none" xmlns="http://www.w3.org/2000/svg">
<path fill-rule="evenodd" clip-rule="evenodd" d="M24.5 48C38.031 48 49 37.2548 49 24C49 10.7452 38.031 0 24.5 0C10.969 0 0 10.7452 0 24C0 37.2548 10.969 48 24.5 48ZM24.5 43C35.2696 43 44 34.4934 44 24C44 13.5066 35.2696 5 24.5 5C13.7304 5 5 13.5066 5 24C5 34.4934 13.7304 43 24.5 43Z" fill="#121212"/>
<rect x="5" y="37.1206" width="47" height="7" transform="rotate(-43.1114 5 37.1206)" fill="#121212"/>
</svg>
