<svg width="49" height="48" viewBox="0 0 49 48" fill="none" xmlns="http://www.w3.org/2000/svg">
<path d="M49 24C49 37.2548 38.031 48 24.5 48C10.969 48 0 37.2548 0 24C0 10.7452 10.969 0 24.5 0C38.031 0 49 10.7452 49 24Z" fill="#496AD0"/>
<mask id="path-2-inside-1_313_4698" fill="white">
<path fill-rule="evenodd" clip-rule="evenodd" d="M21.2323 31.4647C27.4358 31.4647 32.4647 26.4358 32.4647 20.2323C32.4647 14.0289 27.4358 9 21.2323 9C15.0289 9 10 14.0289 10 20.2323C10 26.4358 15.0289 31.4647 21.2323 31.4647ZM21.2324 28.1366C25.5978 28.1366 29.1366 24.5978 29.1366 20.2324C29.1366 15.867 25.5978 12.3281 21.2324 12.3281C16.867 12.3281 13.3281 15.867 13.3281 20.2324C13.3281 24.5978 16.867 28.1366 21.2324 28.1366Z"/>
</mask>
<path fill-rule="evenodd" clip-rule="evenodd" d="M21.2323 31.4647C27.4358 31.4647 32.4647 26.4358 32.4647 20.2323C32.4647 14.0289 27.4358 9 21.2323 9C15.0289 9 10 14.0289 10 20.2323C10 26.4358 15.0289 31.4647 21.2323 31.4647ZM21.2324 28.1366C25.5978 28.1366 29.1366 24.5978 29.1366 20.2324C29.1366 15.867 25.5978 12.3281 21.2324 12.3281C16.867 12.3281 13.3281 15.867 13.3281 20.2324C13.3281 24.5978 16.867 28.1366 21.2324 28.1366Z" fill="white"/>
<path d="M31.4647 20.2323C31.4647 25.8835 26.8835 30.4647 21.2323 30.4647V32.4647C27.9881 32.4647 33.4647 26.9881 33.4647 20.2323H31.4647ZM21.2323 10C26.8835 10 31.4647 14.5812 31.4647 20.2323H33.4647C33.4647 13.4766 27.9881 8 21.2323 8V10ZM11 20.2323C11 14.5812 15.5812 10 21.2323 10V8C14.4766 8 9 13.4766 9 20.2323H11ZM21.2323 30.4647C15.5812 30.4647 11 25.8835 11 20.2323H9C9 26.9881 14.4766 32.4647 21.2323 32.4647V30.4647ZM28.1366 20.2324C28.1366 24.0455 25.0455 27.1366 21.2324 27.1366V29.1366C26.15 29.1366 30.1366 25.15 30.1366 20.2324H28.1366ZM21.2324 13.3281C25.0455 13.3281 28.1366 16.4193 28.1366 20.2324H30.1366C30.1366 15.3147 26.15 11.3281 21.2324 11.3281V13.3281ZM14.3281 20.2324C14.3281 16.4193 17.4193 13.3281 21.2324 13.3281V11.3281C16.3147 11.3281 12.3281 15.3147 12.3281 20.2324H14.3281ZM21.2324 27.1366C17.4193 27.1366 14.3281 24.0455 14.3281 20.2324H12.3281C12.3281 25.15 16.3147 29.1366 21.2324 29.1366V27.1366Z" fill="white" mask="url(#path-2-inside-1_313_4698)"/>
<path d="M29.1367 30.6325L27.8887 29.3845L30.3847 26.8884L31.6328 28.1365L29.1367 30.6325Z" stroke="white" stroke-linecap="round"/>
<path d="M28.7205 32.2966C28.7205 32.2966 28.3045 31.4646 28.7205 31.0486L32.0486 27.7204C32.0486 27.7204 32.8808 27.3042 33.2967 27.7203C33.7127 28.1364 39.1209 33.5445 39.1209 33.5445C39.1209 33.5445 39.8403 34.4907 39.9529 35.2085C40.0813 36.0269 39.9479 36.5693 39.5369 37.2886C39.1949 37.887 38.8873 38.1946 38.2889 38.5366C37.5696 38.9476 37.0272 39.081 36.2088 38.9526C35.491 38.84 34.5448 38.1206 34.5448 38.1206L28.7205 32.2966Z" stroke="white" stroke-linecap="round"/>
</svg>
