<svg width="49" height="48" viewBox="0 0 49 48" fill="none" xmlns="http://www.w3.org/2000/svg">
<path d="M49 24C49 37.2548 38.031 48 24.5 48C10.969 48 0 37.2548 0 24C0 10.7452 10.969 0 24.5 0C38.031 0 49 10.7452 49 24Z" fill="#496AD0"/>
<path d="M33.146 33.5406C32.5627 34.4474 31.4213 35.6966 31.4213 35.6966L27.9718 33.1094C27.9718 33.1094 27.1489 32.9274 26.6783 32.6783C25.8364 32.2326 25.2578 31.6892 24.9537 30.7151C24.7305 30.0003 24.9537 28.7976 24.9537 28.7976V21.2291V13.8989C24.9537 13.8989 24.8364 11.8312 24.9537 11.3118C25.071 10.7924 25.0849 10.202 25.4615 9.82544C25.838 9.44891 26.5823 9.31895 27.1094 9.39425C27.4822 9.4475 27.7056 9.55919 27.9718 9.82544C28.3483 10.202 28.403 11.119 28.403 11.119L28.8342 15.4308L29.6966 18.8803L30.1277 20.6051L30.5589 23.1922V24.4857L35.302 28.7976C35.302 28.7976 34.8073 30.1246 34.4396 30.9535C33.9815 31.9861 33.7572 32.5906 33.146 33.5406Z" stroke="white" stroke-linecap="round"/>
<path d="M13.7432 28.7975L18.4862 24.4856C18.4862 24.4856 18.3286 22.8965 18.4862 21.8985C18.6523 20.8465 19.3486 19.3114 19.3486 19.3114L19.7798 16.7243L20.2109 11.9812C20.2109 11.9812 20.2694 10.8422 20.6421 10.2565C20.8978 9.85468 21.0667 9.58173 21.5045 9.39412C21.9688 9.19512 22.3337 9.19512 22.7981 9.39412C23.2358 9.58173 23.4291 9.84015 23.6604 10.2565C24.0693 10.9925 24.0916 11.3322 24.0916 12.1741C24.0916 18.6655 24.0916 28.7975 24.0916 28.7975C24.0916 28.7975 23.9978 29.3785 24.0916 29.6598C24.1981 29.9793 24.1323 29.2001 24.0629 29.5296C23.9378 30.1237 23.2292 31.8158 23.2292 31.8158C23.2292 31.8158 22.6134 32.8834 21.9357 33.1093C21.4564 33.2691 20.6421 33.1093 20.6421 33.1093L17.6238 35.6964C17.6238 35.6964 16.16 34.5094 15.4679 33.5405C14.8113 32.6213 14.5214 32.0283 14.1743 30.9534C13.9106 30.1363 13.7432 28.7975 13.7432 28.7975Z" stroke="white" stroke-linecap="round"/>
<path d="M20.6421 8.53199C20.5092 9.01936 20.6421 9.82555 20.6421 9.82555L21.5045 8.96318H22.798L24.0916 10.2567V19.5044V28.7977L24.5227 29.2289L24.9539 28.7977V20.3667V10.2567L25.385 9.82544L26.6787 8.96318L27.9722 9.39436C27.9722 9.39436 28.0416 8.86154 27.9722 8.53199C27.8472 7.93788 27.6585 7.49834 27.1099 7.23843C26.6533 7.02218 26.2806 7.03944 25.8163 7.23843C25.3785 7.42605 25.2096 7.69899 24.9539 8.1008C24.6681 8.55005 24.5227 9.39436 24.5227 9.39436L24.0916 8.1008C24.0916 8.1008 23.6552 7.45143 23.2292 7.23843C22.6267 6.93721 22.0893 6.90426 21.5045 7.23843C20.9773 7.53966 20.8018 7.94625 20.6421 8.53199Z" fill="white" stroke="white" stroke-width="0.8" stroke-linecap="round"/>
<path d="M9 38.2836V29.6599L12.0183 27.0728C12.0183 27.0728 12.7261 26.3701 13.3119 26.2104C13.7992 26.0775 14.1411 26.0114 14.6054 26.2104C15.0432 26.398 15.4678 27.0728 15.4678 27.0728L13.743 28.7975C13.743 28.7975 13.9104 30.1363 14.1742 30.9534C14.5213 32.0284 14.8579 32.5898 15.4678 33.5405C16.1779 34.6475 17.6237 36.1277 17.6237 36.1277L20.2108 33.9717C20.2108 33.9717 20.2628 34.7628 20.2108 35.2653C20.1394 35.9559 20.0679 36.3584 19.7796 36.99C19.5276 37.5424 18.9173 38.2836 18.9173 38.2836H9Z" stroke="white" stroke-linecap="round"/>
<path d="M40.1565 29.7057V38.3294H31.9639H30.2392C30.2392 38.3294 29.211 37.6991 28.9457 37.0358C28.6955 36.4104 28.9457 35.3111 28.9457 35.3111V34.0175L31.5328 35.7423L32.8263 34.4487C33.3315 33.9436 33.6404 33.1496 34.1199 32.2928C34.8553 30.9784 35.8446 28.8433 35.8446 28.8433L33.6887 26.6874C33.6887 26.6874 34.1835 26.3379 34.5511 26.2562C34.8798 26.1831 35.08 26.2086 35.4134 26.2562C36.1589 26.3627 37.1382 27.1186 37.1382 27.1186L40.1565 29.7057Z" stroke="white" stroke-linecap="round"/>
</svg>
